<svg width="46" height="28" viewBox="0 0 46 28" fill="none" xmlns="http://www.w3.org/2000/svg">
<path d="M0.275568 27V0.818181H17.9176V5.3821H5.81108V11.6207H17.0099V16.1847H5.81108V22.4361H17.9688V27H0.275568ZM45.4194 9.98438H39.82C39.7177 9.25994 39.5089 8.61648 39.1935 8.05398C38.8782 7.48295 38.4734 6.99716 37.979 6.59659C37.4847 6.19602 36.9137 5.8892 36.266 5.67614C35.6268 5.46307 34.9322 5.35653 34.1822 5.35653C32.8271 5.35653 31.6467 5.69318 30.641 6.36648C29.6353 7.03125 28.8555 8.00284 28.3015 9.28125C27.7475 10.5511 27.4705 12.0937 27.4705 13.9091C27.4705 15.7756 27.7475 17.3437 28.3015 18.6136C28.864 19.8835 29.6481 20.8423 30.6538 21.4901C31.6594 22.1378 32.8228 22.4616 34.1438 22.4616C34.8853 22.4616 35.5714 22.3636 36.2021 22.1676C36.8413 21.9716 37.408 21.6861 37.9023 21.3111C38.3967 20.9276 38.8058 20.4631 39.1296 19.9176C39.462 19.3722 39.6921 18.75 39.82 18.0511L45.4194 18.0767C45.2745 19.2784 44.9123 20.4375 44.3327 21.554C43.7617 22.6619 42.9904 23.6548 42.0188 24.5327C41.0558 25.402 39.9052 26.0923 38.5671 26.6037C37.2376 27.1065 35.7333 27.358 34.0543 27.358C31.7191 27.358 29.631 26.8295 27.7901 25.7727C25.9577 24.7159 24.5089 23.1861 23.4435 21.1832C22.3867 19.1804 21.8583 16.7557 21.8583 13.9091C21.8583 11.054 22.3952 8.625 23.4691 6.62216C24.543 4.61932 26.0004 3.09375 27.8413 2.04545C29.6822 0.988636 31.7532 0.460226 34.0543 0.460226C35.5714 0.460226 36.9776 0.673295 38.2731 1.09943C39.5771 1.52557 40.7319 2.14773 41.7376 2.96591C42.7433 3.77557 43.5614 4.76846 44.1921 5.9446C44.8313 7.12074 45.2404 8.46733 45.4194 9.98438Z" fill="url(#paint0_linear_151_4)"/>
<defs>
<linearGradient id="paint0_linear_151_4" x1="24" y1="-8" x2="24" y2="33" gradientUnits="userSpaceOnUse">
<stop stop-color="#CCF235"/>
<stop offset="0.77686" stop-color="#3C740F"/>
</linearGradient>
</defs>
</svg>
