<svg width="193" height="51" viewBox="0 0 193 51" fill="none" xmlns="http://www.w3.org/2000/svg">
<path d="M0.0454545 50V3.45454H31.4091V11.5682H9.88636V22.6591H29.7955V30.7727H9.88636V41.8864H31.5V50H0.0454545ZM48.733 29.8182V50H39.0511V15.0909H48.2784V21.25H48.6875C49.4602 19.2197 50.7557 17.6136 52.5739 16.4318C54.392 15.2348 56.5966 14.6364 59.1875 14.6364C61.6117 14.6364 63.7254 15.1667 65.5284 16.2273C67.3314 17.2879 68.733 18.803 69.733 20.7727C70.733 22.7273 71.233 25.0606 71.233 27.7727V50H61.5511V29.5C61.5663 27.3636 61.0208 25.697 59.9148 24.5C58.8087 23.2879 57.286 22.6818 55.3466 22.6818C54.0436 22.6818 52.892 22.9621 51.892 23.5227C50.9072 24.0833 50.1345 24.9015 49.5739 25.9773C49.0284 27.0379 48.7481 28.3182 48.733 29.8182ZM78.8636 50V15.0909H88.25V21.1818H88.6136C89.25 19.0152 90.3182 17.3788 91.8182 16.2727C93.3182 15.1515 95.0455 14.5909 97 14.5909C97.4848 14.5909 98.0076 14.6212 98.5682 14.6818C99.1288 14.7424 99.6212 14.8258 100.045 14.9318V23.5227C99.5909 23.3864 98.9621 23.2652 98.1591 23.1591C97.3561 23.053 96.6212 23 95.9545 23C94.5303 23 93.2576 23.3106 92.1364 23.9318C91.0303 24.5379 90.1515 25.3864 89.5 26.4773C88.8636 27.5682 88.5455 28.8258 88.5455 30.25V50H78.8636ZM105.051 50V15.0909H114.733V50H105.051ZM109.915 10.5909C108.475 10.5909 107.241 10.1136 106.21 9.15909C105.195 8.18939 104.688 7.0303 104.688 5.68182C104.688 4.34848 105.195 3.20454 106.21 2.25C107.241 1.2803 108.475 0.795452 109.915 0.795452C111.354 0.795452 112.581 1.2803 113.597 2.25C114.627 3.20454 115.142 4.34848 115.142 5.68182C115.142 7.0303 114.627 8.18939 113.597 9.15909C112.581 10.1136 111.354 10.5909 109.915 10.5909ZM138.261 50.6818C134.686 50.6818 131.61 49.9242 129.034 48.4091C126.473 46.8788 124.504 44.7576 123.125 42.0455C121.761 39.3333 121.08 36.2121 121.08 32.6818C121.08 29.1061 121.769 25.9697 123.148 23.2727C124.542 20.5606 126.519 18.447 129.08 16.9318C131.64 15.4015 134.686 14.6364 138.216 14.6364C141.261 14.6364 143.928 15.1894 146.216 16.2955C148.504 17.4015 150.314 18.9545 151.648 20.9545C152.981 22.9545 153.716 25.303 153.852 28H144.716C144.458 26.2576 143.777 24.8561 142.67 23.7955C141.58 22.7197 140.148 22.1818 138.375 22.1818C136.875 22.1818 135.564 22.5909 134.443 23.4091C133.337 24.2121 132.473 25.3864 131.852 26.9318C131.231 28.4773 130.92 30.3485 130.92 32.5455C130.92 34.7727 131.223 36.6667 131.83 38.2273C132.451 39.7879 133.322 40.9773 134.443 41.7955C135.564 42.6136 136.875 43.0227 138.375 43.0227C139.481 43.0227 140.473 42.7955 141.352 42.3409C142.246 41.8864 142.981 41.2273 143.557 40.3636C144.148 39.4848 144.534 38.4318 144.716 37.2045H153.852C153.701 39.8712 152.973 42.2197 151.67 44.25C150.383 46.2652 148.602 47.8409 146.33 48.9773C144.057 50.1136 141.367 50.6818 138.261 50.6818ZM175.824 50.6818C172.294 50.6818 169.241 49.9318 166.665 48.4318C164.104 46.9167 162.127 44.8106 160.733 42.1136C159.339 39.4015 158.642 36.2576 158.642 32.6818C158.642 29.0758 159.339 25.9242 160.733 23.2273C162.127 20.5152 164.104 18.4091 166.665 16.9091C169.241 15.3939 172.294 14.6364 175.824 14.6364C179.354 14.6364 182.4 15.3939 184.96 16.9091C187.536 18.4091 189.521 20.5152 190.915 23.2273C192.309 25.9242 193.006 29.0758 193.006 32.6818C193.006 36.2576 192.309 39.4015 190.915 42.1136C189.521 44.8106 187.536 46.9167 184.96 48.4318C182.4 49.9318 179.354 50.6818 175.824 50.6818ZM175.869 43.1818C177.475 43.1818 178.816 42.7273 179.892 41.8182C180.968 40.8939 181.778 39.6364 182.324 38.0455C182.884 36.4545 183.165 34.6439 183.165 32.6136C183.165 30.5833 182.884 28.7727 182.324 27.1818C181.778 25.5909 180.968 24.3333 179.892 23.4091C178.816 22.4848 177.475 22.0227 175.869 22.0227C174.248 22.0227 172.884 22.4848 171.778 23.4091C170.688 24.3333 169.862 25.5909 169.301 27.1818C168.756 28.7727 168.483 30.5833 168.483 32.6136C168.483 34.6439 168.756 36.4545 169.301 38.0455C169.862 39.6364 170.688 40.8939 171.778 41.8182C172.884 42.7273 174.248 43.1818 175.869 43.1818Z" fill="#141414"/>
</svg>
